<svg width="22" height="24" viewBox="0 0 22 24" fill="none" xmlns="http://www.w3.org/2000/svg">
    <path d="M11.0036 0C6.41119 0 5.06809 0.00496452 4.80702 0.0276595C3.86458 0.109751 3.27814 0.265247 2.63924 0.59858C2.14687 0.854784 1.75856 1.15177 1.37532 1.56808C0.677379 2.3273 0.254381 3.26134 0.101256 4.37162C0.0268086 4.91062 0.00515117 5.02055 0.000751995 7.77373C-0.000939994 8.69146 0.000751995 9.89926 0.000751995 11.5193C0.000751995 16.3278 0.00582797 17.7338 0.0278238 18.0069C0.103963 18.9678 0.247782 19.5725 0.552341 20.2338C1.13438 21.4998 2.24602 22.4501 3.55562 22.8047C4.00908 22.9271 4.5099 22.9944 5.15286 23.0263C5.42527 23.0388 8.20183 23.0476 10.9801 23.0476C13.7583 23.0476 16.5366 23.0441 16.8022 23.0299C17.5467 22.9932 17.979 22.9324 18.457 22.8029C19.1063 22.6284 19.7115 22.3075 20.2302 21.8625C20.749 21.4176 21.1687 20.8593 21.4603 20.2267C21.7589 19.5813 21.9103 18.9537 21.9789 18.0428C21.9937 17.8443 22 14.6781 22 11.5163C22 8.35387 21.9932 5.1936 21.9783 4.99502C21.909 4.06949 21.7575 3.44715 21.4493 2.78935C21.1963 2.25088 20.9154 1.84875 20.5077 1.43758C19.7801 0.709218 18.8901 0.265957 17.8294 0.105673C17.3156 0.0278368 17.2132 0.00478722 14.5838 0H11.0036Z"
          fill="url(#paint0_radial_172_83)"/>
    <path d="M11.0003 2.88037C8.75971 2.88037 8.47852 2.89063 7.59852 2.93259C6.72024 2.97472 6.12074 3.12039 5.59618 3.33412C5.05357 3.55487 4.59329 3.85017 4.13472 4.33075C3.67582 4.81115 3.39394 5.29335 3.18254 5.86162C2.97801 6.41134 2.83879 7.03957 2.79926 7.95931C2.76007 8.88122 2.74976 9.17597 2.74976 11.5232C2.74976 13.8705 2.75972 14.1642 2.7996 15.0861C2.83999 16.0062 2.97904 16.6342 3.18288 17.1838C3.39377 17.7522 3.67565 18.2344 4.13438 18.7148C4.59277 19.1956 5.05305 19.4916 5.59532 19.7123C6.12022 19.9261 6.7199 20.0717 7.59801 20.1139C8.47801 20.1558 8.75902 20.1661 10.9994 20.1661C13.2401 20.1661 13.5205 20.1558 14.4005 20.1139C15.2788 20.0717 15.8789 19.9261 16.4038 19.7123C16.9463 19.4916 17.4059 19.1956 17.8643 18.7148C18.3232 18.2344 18.6051 17.7522 18.8165 17.1839C19.0193 16.6342 19.1585 16.006 19.1997 15.0862C19.2393 14.1643 19.2496 13.8705 19.2496 11.5232C19.2496 9.17597 19.2393 8.8814 19.1997 7.95949C19.1585 7.03939 19.0193 6.41134 18.8165 5.8618C18.6051 5.29335 18.3232 4.81115 17.8643 4.33075C17.4054 3.84999 16.9465 3.55469 16.4033 3.33412C15.8774 3.12039 15.2776 2.97472 14.3993 2.93259C13.5193 2.89063 13.2391 2.88037 10.9979 2.88037H11.0003ZM10.2602 4.43789C10.4798 4.43753 10.7249 4.43789 11.0003 4.43789C13.203 4.43789 13.4641 4.44617 14.334 4.48758C15.1383 4.52612 15.5749 4.66692 15.8657 4.78522C16.2507 4.94187 16.5252 5.12913 16.8138 5.43163C17.1025 5.73413 17.2813 6.02223 17.4311 6.42556C17.5441 6.72986 17.6786 7.18721 17.7153 8.02989C17.7548 8.94099 17.7634 9.21468 17.7634 11.5212C17.7634 13.8278 17.7548 14.1015 17.7153 15.0126C17.6785 15.8553 17.5441 16.3126 17.4311 16.6169C17.2816 17.0203 17.1025 17.3075 16.8138 17.6098C16.525 17.9123 16.2509 18.0995 15.8657 18.2562C15.5752 18.375 15.1383 18.5155 14.334 18.554C13.4643 18.5954 13.203 18.6044 11.0003 18.6044C8.79735 18.6044 8.53627 18.5954 7.66658 18.554C6.86221 18.5151 6.42565 18.3743 6.13466 18.256C5.74966 18.0994 5.47466 17.9121 5.18591 17.6096C4.89716 17.3071 4.71841 17.0197 4.56854 16.6162C4.45562 16.3119 4.32104 15.8546 4.28443 15.0119C4.2449 14.1008 4.23699 13.8271 4.23699 11.5191C4.23699 9.21108 4.2449 8.93883 4.28443 8.02773C4.32121 7.18505 4.45562 6.7277 4.56854 6.42304C4.71807 6.01971 4.89716 5.73161 5.18591 5.42911C5.47466 5.12661 5.74966 4.93935 6.13466 4.78234C6.42547 4.6635 6.86221 4.52305 7.66658 4.48434C8.42765 4.44833 8.72258 4.43753 10.2602 4.43573V4.43789ZM15.4041 5.87296C15.2082 5.87296 15.0168 5.9338 14.854 6.04778C14.6912 6.16175 14.5643 6.32376 14.4894 6.51329C14.4145 6.70282 14.3949 6.91138 14.4331 7.11257C14.4713 7.31377 14.5656 7.49857 14.7041 7.6436C14.8426 7.78863 15.0191 7.88738 15.2111 7.92736C15.4032 7.96734 15.6023 7.94675 15.7831 7.8682C15.964 7.78964 16.1186 7.65665 16.2274 7.48605C16.3361 7.31544 16.3941 7.11489 16.3941 6.90974C16.3941 6.33715 15.9506 5.8726 15.4041 5.8726V5.87296ZM11.0003 7.08476C8.66054 7.08476 6.76355 9.07208 6.76355 11.5232C6.76355 13.9744 8.66054 15.9608 11.0003 15.9608C13.34 15.9608 15.2365 13.9744 15.2365 11.5232C15.2365 9.07208 13.34 7.08476 11.0003 7.08476ZM11.0003 8.64228C12.519 8.64228 13.7503 9.93204 13.7503 11.5232C13.7503 13.1142 12.519 14.4042 11.0003 14.4042C9.48141 14.4042 8.25027 13.1142 8.25027 11.5232C8.25027 9.93204 9.48141 8.64228 11.0003 8.64228Z"
          fill="white"/>
    <defs>
        <radialGradient id="paint0_radial_172_83" cx="0" cy="0" r="1" gradientUnits="userSpaceOnUse"
                        gradientTransform="translate(5.84378 24.8228) rotate(-90) scale(22.8419 20.2791)">
            <stop stop-color="#FFDD55"/>
            <stop offset="0.1" stop-color="#FFDD55"/>
            <stop offset="0.5" stop-color="#FF543E"/>
            <stop offset="1" stop-color="#C837AB"/>
        </radialGradient>
    </defs>
</svg>
